<svg width="1200" height="760" viewBox="0 0 1200 760" fill="none" xmlns="http://www.w3.org/2000/svg" role="img" aria-labelledby="title desc">
  <title id="title">DevDesk screenshot placeholder</title>
  <desc id="desc">A polished developer utility screenshot placeholder.</desc>
  <rect width="1200" height="760" rx="32" fill="#BE123C"/>
  <rect x="48" y="48" width="1104" height="664" rx="24" fill="#0F172A"/>
  <rect x="92" y="92" width="1016" height="76" rx="18" fill="#1E293B"/>
  <circle cx="134" cy="130" r="10" fill="#F43F5E"/>
  <circle cx="168" cy="130" r="10" fill="#F59E0B"/>
  <circle cx="202" cy="130" r="10" fill="#14B8A6"/>
  <text x="248" y="140" fill="#E2E8F0" font-family="Arial, Helvetica, sans-serif" font-size="24" font-weight="700">DevDesk</text>
  <rect x="92" y="208" width="316" height="420" rx="18" fill="#111827" stroke="#334155"/>
  <rect x="444" y="208" width="664" height="198" rx="18" fill="#111827" stroke="#334155"/>
  <rect x="444" y="430" width="312" height="198" rx="18" fill="#111827" stroke="#334155"/>
  <rect x="796" y="430" width="312" height="198" rx="18" fill="#111827" stroke="#334155"/>
  <text x="132" y="266" fill="#5EEAD4" font-family="Arial, Helvetica, sans-serif" font-size="22" font-weight="700">API scratchpad</text>
  <rect x="132" y="314" width="218" height="14" rx="7" fill="#475569"/>
  <rect x="132" y="356" width="164" height="14" rx="7" fill="#475569"/>
  <rect x="132" y="398" width="238" height="14" rx="7" fill="#475569"/>
  <rect x="132" y="490" width="228" height="56" rx="14" fill="#0F766E"/>
  <text x="486" y="270" fill="#F8FAFC" font-family="Arial, Helvetica, sans-serif" font-size="26" font-weight="700">Request timeline</text>
  <path d="M494 352C560 300 620 362 686 320C744 284 810 314 870 284C920 258 986 276 1058 236" stroke="#F59E0B" stroke-width="8" stroke-linecap="round"/>
  <rect x="486" y="492" width="194" height="18" rx="9" fill="#475569"/>
  <rect x="486" y="538" width="232" height="18" rx="9" fill="#475569"/>
  <rect x="838" y="492" width="194" height="18" rx="9" fill="#475569"/>
  <rect x="838" y="538" width="232" height="18" rx="9" fill="#475569"/>
</svg>
